<svg width="24" height="24" viewBox="0 0 24 24" fill="none" xmlns="http://www.w3.org/2000/svg">
<path d="M21.24 15.6801C21.1127 15.8498 20.9232 15.962 20.7131 15.992C20.5031 16.022 20.2897 15.9674 20.12 15.8401C19.9503 15.7128 19.838 15.5232 19.808 15.3132C19.778 15.1032 19.8327 14.8898 19.96 14.7201L21.4 12.8001L0.800001 12.8001C0.587827 12.8001 0.384344 12.7158 0.234316 12.5657C0.0842855 12.4157 1.72323e-06 12.2122 1.7325e-06 12.0001C1.74178e-06 11.7879 0.0842856 11.5844 0.234316 11.4344C0.384344 11.2843 0.587828 11.2001 0.800001 11.2001L21.4 11.2001L19.96 9.28006C19.897 9.19602 19.8511 9.10038 19.825 8.99861C19.799 8.89684 19.7932 8.79093 19.808 8.68692C19.8229 8.58292 19.8581 8.48287 19.9116 8.39247C19.9651 8.30207 20.036 8.2231 20.12 8.16006C20.204 8.09703 20.2997 8.05116 20.4015 8.02509C20.5032 7.99902 20.6091 7.99324 20.7131 8.0081C20.8171 8.02296 20.9172 8.05816 21.0076 8.11168C21.098 8.16521 21.177 8.23601 21.24 8.32006L23.6352 11.5137L23.6456 11.5273L24 12.0001L23.6456 12.4721L23.6352 12.4865L21.24 15.6801Z" fill="#0689FF"/>
</svg>
