<svg width="592" height="628" viewBox="0 0 592 628" fill="none" xmlns="http://www.w3.org/2000/svg">
<g filter="url(#filter0_d_101_284)">
<path d="M245.032 610.998L235.713 201.367L62.0328 201.367L64.5744 610.998H245.032Z" fill="#F1F6FF"/>
<path d="M306.879 608.881V337.77L516.566 343.89V608.881H306.879Z" fill="#FEFCED"/>
<path d="M62.0331 201.367L64.5747 610.998H163.276L158.616 201.367H62.0331Z" fill="#7398F7"/>
<path d="M186.997 159.855H114.983V201.369H186.997V159.855Z" fill="#1F1D42"/>
<path d="M114.983 159.855V201.369H163.698C140.315 196.285 133.057 171.575 132.351 159.855H114.983Z" fill="#1F1717"/>
<path d="M156.498 89.1111L148.026 88.2639C145.908 87.4167 145.484 77.6737 153.533 79.7917C159.972 81.4862 158.192 86.7107 156.498 89.1111Z" fill="#0E173D"/>
<path d="M156.499 89.112L148.026 88.2648V100.549L156.499 101.396V89.112Z" fill="#0E173D"/>
<path d="M148.025 100.548L156.498 101.396L187.845 123.847H114.56L148.025 100.548Z" fill="#1F1D42"/>
<path d="M327.636 403.007H320.859V451.298H317.893V456.381H330.602V449.604H327.636V403.007Z" fill="#1B2A63"/>
<path d="M516.566 612.269H306.879V473.325L516.566 476.385V612.269Z" fill="#A3BDFF"/>
<path d="M452.177 242.458L225.546 235.257L306.879 337.77L524.614 344.124L452.177 242.458Z" fill="#063183"/>
<path d="M306.879 337.77L524.614 344.124L320.011 238.259L225.546 235.257L306.879 337.77Z" fill="#7087FB"/>
<path d="M225.546 235.257L306.879 337.77V605.915L156.921 613.117V476.291V337.77L197.164 284.819H188.268L225.546 235.257Z" fill="#CFDEF3"/>
<path d="M254.776 297.527H210.297V350.902H254.776V297.527Z" fill="#0C183F"/>
<rect x="215.38" y="303.033" width="15.2499" height="18.6388" fill="#1F326B"/>
<rect x="236.56" y="303.033" width="15.2499" height="18.6388" fill="#1F326B"/>
<rect x="236.56" y="328.451" width="15.2499" height="18.6388" fill="#1F326B"/>
<path d="M114.562 123.846H187.846H192.929V125.964H108.631V123.846H114.562Z" stroke="black"/>
<path d="M154.804 378.012H307.727H516.99" stroke="black" stroke-width="4"/>
<path d="M155.652 486.457H305.186H515.297" stroke="black" stroke-width="5"/>
<path d="M155.652 486.457H305.186" stroke="#5267FA" stroke-width="6"/>
<rect x="215.38" y="328.451" width="15.2499" height="18.6388" fill="#1F326B"/>
<path d="M117.525 289.901H95.0741V350.901H119.22L117.525 289.901Z" fill="#0E173D"/>
<path d="M117.525 395.381H95.0741V456.381H119.22L117.525 395.381Z" fill="#0C193F"/>
<path d="M118.797 267.027H95.9224V220.43C101.345 205.18 110.325 214.076 114.138 220.43L118.797 267.027Z" fill="#1F1D42"/>
<path d="M356.019 247.118H331.874L310.693 240.763V201.368V199.25L331.874 198.677L357.714 197.979L357.597 201.368L356.019 247.118Z" fill="#1F326B"/>
<path d="M356.019 247.118H331.874V201.368V198.677L357.714 197.979L357.597 201.368L356.019 247.118Z" fill="#FEFDE8"/>
<path d="M310.693 199.25L331.874 198.677L357.714 197.979L357.597 201.368H331.874H310.693V199.25Z" fill="#112F7F"/>
<rect x="184.881" y="125.966" width="1.69444" height="33.8888" fill="#0C1942"/>
<rect x="245.032" y="166.632" width="1.69444" height="189.777" transform="rotate(90 245.032 166.632)" fill="#0C1942"/>
<rect x="245.032" y="199.673" width="1.69444" height="189.777" transform="rotate(90 245.032 199.673)" fill="#0C1942"/>
<path d="M62.0009 231.867H159.855H236.501" stroke="#18265D" stroke-width="4"/>
<rect x="245.032" y="186.118" width="1.69444" height="189.777" transform="rotate(90 245.032 186.118)" fill="#081334"/>
<rect x="114.56" y="125.966" width="1.69444" height="33.8888" fill="#132355"/>
<rect x="132.352" y="131.895" width="1.69444" height="27.9582" fill="#132355"/>
<rect x="135.741" y="131.895" width="1.69444" height="27.9582" fill="#132355"/>
<rect x="140.824" y="131.895" width="1.69444" height="27.9582" fill="#132355"/>
<path d="M225.546 235.257L231.259 244.153M306.879 337.77L300.72 330.145M231.259 244.153L457.308 249.66M231.259 244.153L241.524 256.861M241.524 256.861L466.061 261.944M241.524 256.861L252.816 270.84M252.816 270.84L474.814 274.229M252.816 270.84L261.976 282.181M261.976 282.181L483.566 286.514M261.976 282.181L273.004 295.833M273.004 295.833L492.42 298.939M273.004 295.833L282.243 307.27M282.243 307.27L501.739 312.019M282.243 307.27L294.561 322.52M294.561 322.52H509.221M294.561 322.52L300.72 330.145M300.72 330.145L516.918 333.322" stroke="#A3BDFF" stroke-width="4"/>
<rect x="87.4506" y="168.327" width="1.69444" height="31.3471" fill="#121B3A"/>
<rect x="55.2557" y="168.327" width="1.69444" height="31.3471" fill="#121B3A"/>
<rect x="243.338" y="168.327" width="1.69444" height="31.3471" fill="#121B3A"/>
<path d="M381.436 511.026H367.88V579.651H381.436V511.026Z" fill="#0C183F"/>
<path d="M367.88 579.651H381.436V545.339H367.88V579.651Z" fill="#17275F"/>
<path d="M493.691 548.304H471.24V580.499H493.691V548.304Z" fill="#17275F"/>
<path d="M152.687 79.7914L150.992 1" stroke="black" stroke-width="3"/>
<rect x="214.534" y="168.327" width="1.69444" height="31.3471" fill="#121B3A"/>
<rect x="155.227" y="168.327" width="1.69444" height="31.3471" fill="#121B3A"/>
<rect x="81.5193" y="168.327" width="1.69444" height="31.3471" fill="#121B3A"/>
<rect x="208.602" y="168.327" width="1.69444" height="31.3471" fill="#121B3A"/>
<rect x="208.602" y="168.327" width="1.69444" height="31.3471" fill="#121B3A"/>
<rect x="149.298" y="168.327" width="1.69444" height="31.3471" fill="#121B3A"/>
<rect x="162.853" y="131.895" width="1.69444" height="27.9582" fill="#121B3A"/>
<rect x="166.241" y="131.895" width="1.69444" height="27.9582" fill="#121B3A"/>
<rect x="156.921" y="131.895" width="1.69444" height="27.9582" fill="#121B3A"/>
<path d="M471.24 580.499H493.691V564.402H471.24V580.499Z" fill="#0F1C49"/>
<path d="M507.67 556.353H499.198V574.145L507.67 573.721V556.353Z" fill="#FAF2E2"/>
<path d="M204.365 511.449V548.727H208.601V604.643H215.803V546.185H211.143V517.803H252.657V546.185H245.879V604.643H250.115V548.727H258.164V511.449H204.365Z" fill="#0D0808"/>
<path d="M245.881 546.186V604.644H215.805V546.186H211.145V517.804H252.659V546.186H245.881Z" fill="#17275F"/>
<path d="M588 611.421H4V620H588V611.421Z" fill="#091D39"/>
<path d="M575.873 611.422V576.686M514.026 576.686V611.422M450.485 576.686V611.422M389.909 576.686V611.422M327.214 576.686V611.422M263.249 576.686V611.422M205.639 576.686V611.422M140.826 576.686V611.422M78.132 576.686V611.422M18.4031 576.686V611.422" stroke="black" stroke-width="4"/>
<path d="M575.873 582C562.6 593.579 531.648 609.789 514.026 582C499.623 590.755 466.751 602.78 450.485 581.769C437.776 590.241 407.869 603.288 389.908 587.699C377.341 593.489 347.209 601.594 327.214 587.699C309.705 591.371 272.399 596.511 263.249 587.699C251.388 591.371 223.26 596.511 205.638 587.699C188.553 591.371 151.67 596.511 140.826 587.699C122.752 593.912 93.8057 602.102 78.1318 587.699C61.0807 591.371 27.3695 597.311 17.5004 588.5" stroke="black" stroke-width="3"/>
<circle cx="575.965" cy="574.965" r="2.96527" fill="#06162A"/>
<circle cx="514.026" cy="574.568" r="2.96527" fill="#06162A"/>
<circle cx="450.484" cy="575.416" r="2.96527" fill="#06162A"/>
<circle cx="389.965" cy="574.965" r="2.96527" fill="#06162A"/>
<circle cx="326.965" cy="574.965" r="2.96527" fill="#06162A"/>
<circle cx="263.249" cy="575.416" r="2.96527" fill="#06162A"/>
<circle cx="205.638" cy="574.568" r="2.96527" fill="#06162A"/>
<circle cx="140.965" cy="574.568" r="2.96527" fill="#06162A"/>
<circle cx="77.9653" cy="576.262" r="2.96527" fill="#06162A"/>
<circle cx="17.9653" cy="577.965" r="2.96527" fill="#06162A"/>
<path d="M60.7639 45.479L73.4722 56.4929L86.1805 45.479" stroke="black" stroke-width="4"/>
<path d="M12.4716 38.7015L25.1799 49.7154L37.8882 38.7015" stroke="black" stroke-width="4"/>
<path d="M67.5414 16.675L80.2496 27.6889L92.9579 16.675" stroke="black" stroke-width="4"/>
<path d="M137.014 20.9098L149.722 31.9236L162.431 20.9098" stroke="black" stroke-width="4"/>
<path d="M259.86 390.298H214.11L215.805 458.076H259.86V390.298Z" fill="#0F1F4C"/>
<path d="M248.847 401.736H225.125V446.638H248.847V401.736Z" fill="#142553"/>
</g>
<defs>
<filter id="filter0_d_101_284" x="0" y="0.967773" width="592" height="627.032" filterUnits="userSpaceOnUse" color-interpolation-filters="sRGB">
<feFlood flood-opacity="0" result="BackgroundImageFix"/>
<feColorMatrix in="SourceAlpha" type="matrix" values="0 0 0 0 0 0 0 0 0 0 0 0 0 0 0 0 0 0 127 0" result="hardAlpha"/>
<feOffset dy="4"/>
<feGaussianBlur stdDeviation="2"/>
<feComposite in2="hardAlpha" operator="out"/>
<feColorMatrix type="matrix" values="0 0 0 0 0 0 0 0 0 0 0 0 0 0 0 0 0 0 0.25 0"/>
<feBlend mode="normal" in2="BackgroundImageFix" result="effect1_dropShadow_101_284"/>
<feBlend mode="normal" in="SourceGraphic" in2="effect1_dropShadow_101_284" result="shape"/>
</filter>
</defs>
</svg>
