<svg width="21" height="19" viewBox="0 0 21 19" fill="none" xmlns="http://www.w3.org/2000/svg">
<path d="M20.2707 7.15771C20.2007 6.94811 20.0147 6.79535 19.7906 6.7637L13.4975 5.87352L10.6831 0.322568C10.583 0.124963 10.3762 -0.00012207 10.1498 -0.00012207C9.92346 -0.00012207 9.71673 0.124963 9.61654 0.322568L6.80199 5.87352L0.509014 6.7637C0.285041 6.79535 0.0988927 6.94811 0.0289531 7.15768C-0.041026 7.36728 0.0173362 7.59734 0.179458 7.75114L4.73298 12.072L3.6582 18.1731C3.6199 18.3903 3.71164 18.6098 3.89478 18.7393C3.99838 18.8126 4.12109 18.8499 4.2444 18.8499C4.33908 18.8499 4.43407 18.8279 4.52106 18.7834L10.1498 15.9028L15.7783 18.7833C15.9787 18.8859 16.2215 18.8688 16.4046 18.7393C16.5878 18.6098 16.6796 18.3903 16.6413 18.173L15.5662 12.072L20.1202 7.75111C20.2823 7.59734 20.3407 7.36728 20.2707 7.15771Z" fill="#FFCA56"/>
</svg>
