<svg width="11" height="9" viewBox="0 0 11 9" fill="none" xmlns="http://www.w3.org/2000/svg">
<path d="M10.8769 1.00421C10.4794 1.18942 9.97586 1.36326 9.52466 1.42105C9.98353 1.13495 10.7115 0.539053 10.8769 0C10.4483 0.264789 9.67296 0.547579 9.16721 0.649895C8.76333 0.199895 8.18726 0 7.54899 0C6.32293 0 5.46784 1.09184 5.46784 2.36842V3.31579C3.66481 3.31579 1.90685 1.87247 0.812864 0.473684C0.615052 0.82624 0.5112 1.22825 0.512208 1.63753C0.512208 2.49916 1.26542 3.37358 1.86178 3.78947C1.49802 3.77763 0.809258 3.48584 0.509504 3.31579V3.34279C0.509504 4.464 1.25821 5.22521 2.27287 5.43742C2.08761 5.49095 1.86178 5.68421 0.992716 5.68421C1.27489 6.60079 2.69342 7.08537 3.66481 7.10526C2.90483 7.72437 1.54985 8.05263 0.509504 8.05263C0.329652 8.05263 0.232288 8.06305 0.0587463 8.04174C1.0405 8.69542 2.4117 9 3.66481 9C7.74732 9 9.97541 5.72305 9.97541 2.66684C9.97541 2.56642 9.97226 2.23011 9.9673 2.13158C10.4036 1.80853 10.5803 1.47032 10.8769 1.00421Z" fill="#646464"/>
</svg>
